<svg width="185" height="208" viewBox="0 0 185 208" fill="none" xmlns="http://www.w3.org/2000/svg">
<mask id="path-1-outside-1_362_2196" maskUnits="userSpaceOnUse" x="-0.00732422" y="-0.225586" width="185" height="208" fill="black">
<rect fill="white" x="-0.00732422" y="-0.225586" width="185" height="208"/>
<path d="M144.098 17.8594C156.094 26.3161 165.436 37.9194 172.123 52.6694C178.809 67.4194 182.153 84.1361 182.153 102.819C182.153 121.503 178.809 138.514 172.123 153.854C165.436 169.194 156.094 181.191 144.098 189.844C136.428 195.351 127.578 199.383 117.548 201.939C107.714 204.496 95.6193 205.774 81.2627 205.774H2.79268V203.414L26.9827 201.054V6.94441L2.79268 4.5844V2.2244H81.2627C108.009 2.2244 128.954 7.43607 144.098 17.8594ZM133.478 184.829C139.771 176.766 144.688 165.359 148.228 150.609C151.964 135.663 153.833 119.241 153.833 101.344C153.833 83.8411 152.063 68.4027 148.523 55.0294C145.179 41.6561 140.164 31.0361 133.478 23.1694C127.971 16.6794 121.186 12.1561 113.123 9.59941C105.059 7.04274 93.5543 5.7644 78.6077 5.7644H49.6977V202.234H78.6077C94.341 202.234 106.141 200.956 114.008 198.399C121.874 195.843 128.364 191.319 133.478 184.829Z"/>
</mask>
<path d="M144.098 17.8594L145.25 16.2247L145.241 16.2183L145.232 16.2119L144.098 17.8594ZM172.123 52.6694L173.944 51.8436L172.123 52.6694ZM172.123 153.854L170.289 153.055L172.123 153.854ZM144.098 189.844L145.264 191.469L145.268 191.466L144.098 189.844ZM117.548 201.939L117.054 200.001L117.044 200.004L117.548 201.939ZM2.79268 205.774H0.792677V207.774H2.79268V205.774ZM2.79268 203.414L2.59848 201.424L0.792677 201.6V203.414H2.79268ZM26.9827 201.054L27.1769 203.045L28.9827 202.869V201.054H26.9827ZM26.9827 6.94441H28.9827V5.13003L27.1769 4.95386L26.9827 6.94441ZM2.79268 4.5844H0.792677V6.39878L2.59848 6.57495L2.79268 4.5844ZM2.79268 2.2244V0.224398H0.792677V2.2244H2.79268ZM133.478 184.829L135.049 186.067L135.054 186.06L133.478 184.829ZM148.228 150.609L146.287 150.124L146.285 150.133L146.283 150.143L148.228 150.609ZM148.523 55.0294L146.582 55.5145L146.586 55.5279L146.589 55.5412L148.523 55.0294ZM133.478 23.1694L131.953 24.4634L131.954 24.4647L133.478 23.1694ZM113.123 9.59941L113.727 7.69295L113.123 9.59941ZM49.6977 5.7644V3.7644H47.6977V5.7644H49.6977ZM49.6977 202.234H47.6977V204.234H49.6977V202.234ZM114.008 198.399L114.626 200.301L114.008 198.399ZM144.098 17.8594L142.945 19.4941C154.621 27.7248 163.746 39.0351 170.301 53.4952L172.123 52.6694L173.944 51.8436C167.126 36.8037 157.567 24.9074 145.25 16.2247L144.098 17.8594ZM172.123 52.6694L170.301 53.4952C176.853 67.9488 180.153 84.3773 180.153 102.819H182.153H184.153C184.153 83.8948 180.765 66.89 173.944 51.8436L172.123 52.6694ZM182.153 102.819H180.153C180.153 121.26 176.854 137.995 170.289 153.055L172.123 153.854L173.956 154.654C180.765 139.034 184.153 121.746 184.153 102.819H182.153ZM172.123 153.854L170.289 153.055C163.727 168.111 154.597 179.805 142.928 188.222L144.098 189.844L145.268 191.466C157.592 182.577 167.145 170.278 173.956 154.654L172.123 153.854ZM144.098 189.844L142.931 188.22C135.483 193.568 126.865 197.5 117.054 200.001L117.548 201.939L118.042 203.877C128.29 201.265 137.373 197.135 145.264 191.469L144.098 189.844ZM117.548 201.939L117.044 200.004C107.427 202.504 95.5134 203.774 81.2627 203.774V205.774V207.774C95.7253 207.774 108.001 206.488 118.051 203.875L117.548 201.939ZM81.2627 205.774V203.774H2.79268V205.774V207.774H81.2627V205.774ZM2.79268 205.774H4.79268V203.414H2.79268H0.792677V205.774H2.79268ZM2.79268 203.414L2.98688 205.405L27.1769 203.045L26.9827 201.054L26.7885 199.064L2.59848 201.424L2.79268 203.414ZM26.9827 201.054H28.9827V6.94441H26.9827H24.9827V201.054H26.9827ZM26.9827 6.94441L27.1769 4.95386L2.98688 2.59385L2.79268 4.5844L2.59848 6.57495L26.7885 8.93496L26.9827 6.94441ZM2.79268 4.5844H4.79268V2.2244H2.79268H0.792677V4.5844H2.79268ZM2.79268 2.2244V4.2244H81.2627V2.2244V0.224398H2.79268V2.2244ZM81.2627 2.2244V4.2244C107.78 4.2244 128.274 9.39577 142.964 19.5069L144.098 17.8594L145.232 16.2119C129.635 5.47637 108.239 0.224398 81.2627 0.224398V2.2244ZM133.478 184.829L135.054 186.06C141.587 177.689 146.595 165.981 150.172 151.076L148.228 150.609L146.283 150.143C142.78 164.737 137.955 175.843 131.901 183.599L133.478 184.829ZM148.228 150.609L150.168 151.094C153.95 135.966 155.833 119.379 155.833 101.344H153.833H151.833C151.833 119.103 149.979 135.359 146.287 150.124L148.228 150.609ZM153.833 101.344H155.833C155.833 83.7117 154.05 68.0952 150.456 54.5176L148.523 55.0294L146.589 55.5412C150.075 68.7102 151.833 83.9705 151.833 101.344H153.833ZM148.523 55.0294L150.463 54.5443C147.069 40.968 141.943 30.0402 135.002 21.8741L133.478 23.1694L131.954 24.4647C138.386 32.0319 143.29 42.3441 146.582 55.5145L148.523 55.0294ZM133.478 23.1694L135.003 21.8755C129.254 15.1007 122.151 10.364 113.727 7.69295L113.123 9.59941L112.518 11.5059C120.221 13.9482 126.688 18.2581 131.953 24.4634L133.478 23.1694ZM113.123 9.59941L113.727 7.69295C105.373 5.04418 93.6278 3.7644 78.6077 3.7644V5.7644V7.7644C93.4809 7.7644 104.745 9.0413 112.518 11.5059L113.123 9.59941ZM78.6077 5.7644V3.7644H49.6977V5.7644V7.7644H78.6077V5.7644ZM49.6977 5.7644H47.6977V202.234H49.6977H51.6977V5.7644H49.6977ZM49.6977 202.234V204.234H78.6077V202.234V200.234H49.6977V202.234ZM78.6077 202.234V204.234C94.3975 204.234 106.453 202.958 114.626 200.301L114.008 198.399L113.39 196.497C105.829 198.954 94.2845 200.234 78.6077 200.234V202.234ZM114.008 198.399L114.626 200.301C122.868 197.623 129.69 192.868 135.049 186.067L133.478 184.829L131.907 183.592C127.039 189.77 120.88 194.063 113.39 196.497L114.008 198.399Z" fill="#AF9FFF" mask="url(#path-1-outside-1_362_2196)"/>
</svg>
